<?xml version="1.0" encoding="utf-8" standalone="no"?>
<!DOCTYPE svg PUBLIC "-//W3C//DTD SVG 1.1//EN"
  "http://www.w3.org/Graphics/SVG/1.1/DTD/svg11.dtd">
<svg xmlns:xlink="http://www.w3.org/1999/xlink" width="403.90012pt" height="352.861125pt" viewBox="0 0 403.90012 352.861125" xmlns="http://www.w3.org/2000/svg" version="1.1">
 <metadata>
  <rdf:RDF xmlns:dc="http://purl.org/dc/elements/1.1/" xmlns:cc="http://creativecommons.org/ns#" xmlns:rdf="http://www.w3.org/1999/02/22-rdf-syntax-ns#">
   <cc:Work>
    <dc:type rdf:resource="http://purl.org/dc/dcmitype/StillImage"/>
    <dc:date>2025-10-12T12:43:02.556307</dc:date>
    <dc:format>image/svg+xml</dc:format>
    <dc:creator>
     <cc:Agent>
      <dc:title>Matplotlib v3.10.5, https://matplotlib.org/</dc:title>
     </cc:Agent>
    </dc:creator>
   </cc:Work>
  </rdf:RDF>
 </metadata>
 <defs>
  <style type="text/css">*{stroke-linejoin: round; stroke-linecap: butt}</style>
 </defs>
 <g id="figure_1">
  <g id="patch_1">
   <path d="M 0 352.861125 
L 403.90012 352.861125 
L 403.90012 0 
L 0 0 
z
" style="fill: #ffffff"/>
  </g>
  <g id="axes_1">
   <g id="patch_2">
    <path d="M 30.103125 315.304875 
L 387.223125 315.304875 
L 387.223125 49.192875 
L 30.103125 49.192875 
z
" style="fill: #ffffff"/>
   </g>
   <g id="matplotlib.axis_1">
    <g id="xtick_1">
     <g id="line2d_1">
      <defs>
       <path id="m897167f82d" d="M 0 0 
L 0 3.5 
" style="stroke: #000000; stroke-width: 0.8"/>
      </defs>
      <g>
       <use xlink:href="#m897167f82d" x="46.335852" y="315.304875" style="stroke: #000000; stroke-width: 0.8"/>
      </g>
     </g>
     <g id="text_1">
      <!-- 0 -->
      <g transform="translate(43.154602 329.903312) scale(0.1 -0.1)">
       <defs>
        <path id="DejaVuSans-30" d="M 2034 4250 
Q 1547 4250 1301 3770 
Q 1056 3291 1056 2328 
Q 1056 1369 1301 889 
Q 1547 409 2034 409 
Q 2525 409 2770 889 
Q 3016 1369 3016 2328 
Q 3016 3291 2770 3770 
Q 2525 4250 2034 4250 
z
M 2034 4750 
Q 2819 4750 3233 4129 
Q 3647 3509 3647 2328 
Q 3647 1150 3233 529 
Q 2819 -91 2034 -91 
Q 1250 -91 836 529 
Q 422 1150 422 2328 
Q 422 3509 836 4129 
Q 1250 4750 2034 4750 
z
" transform="scale(0.015625)"/>
       </defs>
       <use xlink:href="#DejaVuSans-30"/>
      </g>
     </g>
    </g>
    <g id="xtick_2">
     <g id="line2d_2">
      <g>
       <use xlink:href="#m897167f82d" x="112.591206" y="315.304875" style="stroke: #000000; stroke-width: 0.8"/>
      </g>
     </g>
     <g id="text_2">
      <!-- 20000 -->
      <g transform="translate(96.684956 329.903312) scale(0.1 -0.1)">
       <defs>
        <path id="DejaVuSans-32" d="M 1228 531 
L 3431 531 
L 3431 0 
L 469 0 
L 469 531 
Q 828 903 1448 1529 
Q 2069 2156 2228 2338 
Q 2531 2678 2651 2914 
Q 2772 3150 2772 3378 
Q 2772 3750 2511 3984 
Q 2250 4219 1831 4219 
Q 1534 4219 1204 4116 
Q 875 4013 500 3803 
L 500 4441 
Q 881 4594 1212 4672 
Q 1544 4750 1819 4750 
Q 2544 4750 2975 4387 
Q 3406 4025 3406 3419 
Q 3406 3131 3298 2873 
Q 3191 2616 2906 2266 
Q 2828 2175 2409 1742 
Q 1991 1309 1228 531 
z
" transform="scale(0.015625)"/>
       </defs>
       <use xlink:href="#DejaVuSans-32"/>
       <use xlink:href="#DejaVuSans-30" transform="translate(63.623047 0)"/>
       <use xlink:href="#DejaVuSans-30" transform="translate(127.246094 0)"/>
       <use xlink:href="#DejaVuSans-30" transform="translate(190.869141 0)"/>
       <use xlink:href="#DejaVuSans-30" transform="translate(254.492188 0)"/>
      </g>
     </g>
    </g>
    <g id="xtick_3">
     <g id="line2d_3">
      <g>
       <use xlink:href="#m897167f82d" x="178.846559" y="315.304875" style="stroke: #000000; stroke-width: 0.8"/>
      </g>
     </g>
     <g id="text_3">
      <!-- 40000 -->
      <g transform="translate(162.940309 329.903312) scale(0.1 -0.1)">
       <defs>
        <path id="DejaVuSans-34" d="M 2419 4116 
L 825 1625 
L 2419 1625 
L 2419 4116 
z
M 2253 4666 
L 3047 4666 
L 3047 1625 
L 3713 1625 
L 3713 1100 
L 3047 1100 
L 3047 0 
L 2419 0 
L 2419 1100 
L 313 1100 
L 313 1709 
L 2253 4666 
z
" transform="scale(0.015625)"/>
       </defs>
       <use xlink:href="#DejaVuSans-34"/>
       <use xlink:href="#DejaVuSans-30" transform="translate(63.623047 0)"/>
       <use xlink:href="#DejaVuSans-30" transform="translate(127.246094 0)"/>
       <use xlink:href="#DejaVuSans-30" transform="translate(190.869141 0)"/>
       <use xlink:href="#DejaVuSans-30" transform="translate(254.492188 0)"/>
      </g>
     </g>
    </g>
    <g id="xtick_4">
     <g id="line2d_4">
      <g>
       <use xlink:href="#m897167f82d" x="245.101913" y="315.304875" style="stroke: #000000; stroke-width: 0.8"/>
      </g>
     </g>
     <g id="text_4">
      <!-- 60000 -->
      <g transform="translate(229.195663 329.903312) scale(0.1 -0.1)">
       <defs>
        <path id="DejaVuSans-36" d="M 2113 2584 
Q 1688 2584 1439 2293 
Q 1191 2003 1191 1497 
Q 1191 994 1439 701 
Q 1688 409 2113 409 
Q 2538 409 2786 701 
Q 3034 994 3034 1497 
Q 3034 2003 2786 2293 
Q 2538 2584 2113 2584 
z
M 3366 4563 
L 3366 3988 
Q 3128 4100 2886 4159 
Q 2644 4219 2406 4219 
Q 1781 4219 1451 3797 
Q 1122 3375 1075 2522 
Q 1259 2794 1537 2939 
Q 1816 3084 2150 3084 
Q 2853 3084 3261 2657 
Q 3669 2231 3669 1497 
Q 3669 778 3244 343 
Q 2819 -91 2113 -91 
Q 1303 -91 875 529 
Q 447 1150 447 2328 
Q 447 3434 972 4092 
Q 1497 4750 2381 4750 
Q 2619 4750 2861 4703 
Q 3103 4656 3366 4563 
z
" transform="scale(0.015625)"/>
       </defs>
       <use xlink:href="#DejaVuSans-36"/>
       <use xlink:href="#DejaVuSans-30" transform="translate(63.623047 0)"/>
       <use xlink:href="#DejaVuSans-30" transform="translate(127.246094 0)"/>
       <use xlink:href="#DejaVuSans-30" transform="translate(190.869141 0)"/>
       <use xlink:href="#DejaVuSans-30" transform="translate(254.492188 0)"/>
      </g>
     </g>
    </g>
    <g id="xtick_5">
     <g id="line2d_5">
      <g>
       <use xlink:href="#m897167f82d" x="311.357267" y="315.304875" style="stroke: #000000; stroke-width: 0.8"/>
      </g>
     </g>
     <g id="text_5">
      <!-- 80000 -->
      <g transform="translate(295.451017 329.903312) scale(0.1 -0.1)">
       <defs>
        <path id="DejaVuSans-38" d="M 2034 2216 
Q 1584 2216 1326 1975 
Q 1069 1734 1069 1313 
Q 1069 891 1326 650 
Q 1584 409 2034 409 
Q 2484 409 2743 651 
Q 3003 894 3003 1313 
Q 3003 1734 2745 1975 
Q 2488 2216 2034 2216 
z
M 1403 2484 
Q 997 2584 770 2862 
Q 544 3141 544 3541 
Q 544 4100 942 4425 
Q 1341 4750 2034 4750 
Q 2731 4750 3128 4425 
Q 3525 4100 3525 3541 
Q 3525 3141 3298 2862 
Q 3072 2584 2669 2484 
Q 3125 2378 3379 2068 
Q 3634 1759 3634 1313 
Q 3634 634 3220 271 
Q 2806 -91 2034 -91 
Q 1263 -91 848 271 
Q 434 634 434 1313 
Q 434 1759 690 2068 
Q 947 2378 1403 2484 
z
M 1172 3481 
Q 1172 3119 1398 2916 
Q 1625 2713 2034 2713 
Q 2441 2713 2670 2916 
Q 2900 3119 2900 3481 
Q 2900 3844 2670 4047 
Q 2441 4250 2034 4250 
Q 1625 4250 1398 4047 
Q 1172 3844 1172 3481 
z
" transform="scale(0.015625)"/>
       </defs>
       <use xlink:href="#DejaVuSans-38"/>
       <use xlink:href="#DejaVuSans-30" transform="translate(63.623047 0)"/>
       <use xlink:href="#DejaVuSans-30" transform="translate(127.246094 0)"/>
       <use xlink:href="#DejaVuSans-30" transform="translate(190.869141 0)"/>
       <use xlink:href="#DejaVuSans-30" transform="translate(254.492188 0)"/>
      </g>
     </g>
    </g>
    <g id="xtick_6">
     <g id="line2d_6">
      <g>
       <use xlink:href="#m897167f82d" x="377.61262" y="315.304875" style="stroke: #000000; stroke-width: 0.8"/>
      </g>
     </g>
     <g id="text_6">
      <!-- 100000 -->
      <g transform="translate(358.52512 329.903312) scale(0.1 -0.1)">
       <defs>
        <path id="DejaVuSans-31" d="M 794 531 
L 1825 531 
L 1825 4091 
L 703 3866 
L 703 4441 
L 1819 4666 
L 2450 4666 
L 2450 531 
L 3481 531 
L 3481 0 
L 794 0 
L 794 531 
z
" transform="scale(0.015625)"/>
       </defs>
       <use xlink:href="#DejaVuSans-31"/>
       <use xlink:href="#DejaVuSans-30" transform="translate(63.623047 0)"/>
       <use xlink:href="#DejaVuSans-30" transform="translate(127.246094 0)"/>
       <use xlink:href="#DejaVuSans-30" transform="translate(190.869141 0)"/>
       <use xlink:href="#DejaVuSans-30" transform="translate(254.492188 0)"/>
       <use xlink:href="#DejaVuSans-30" transform="translate(318.115234 0)"/>
      </g>
     </g>
    </g>
    <g id="text_7">
     <!-- Game -->
     <g transform="translate(193.777969 343.581437) scale(0.1 -0.1)">
      <defs>
       <path id="DejaVuSans-47" d="M 3809 666 
L 3809 1919 
L 2778 1919 
L 2778 2438 
L 4434 2438 
L 4434 434 
Q 4069 175 3628 42 
Q 3188 -91 2688 -91 
Q 1594 -91 976 548 
Q 359 1188 359 2328 
Q 359 3472 976 4111 
Q 1594 4750 2688 4750 
Q 3144 4750 3555 4637 
Q 3966 4525 4313 4306 
L 4313 3634 
Q 3963 3931 3569 4081 
Q 3175 4231 2741 4231 
Q 1884 4231 1454 3753 
Q 1025 3275 1025 2328 
Q 1025 1384 1454 906 
Q 1884 428 2741 428 
Q 3075 428 3337 486 
Q 3600 544 3809 666 
z
" transform="scale(0.015625)"/>
       <path id="DejaVuSans-61" d="M 2194 1759 
Q 1497 1759 1228 1600 
Q 959 1441 959 1056 
Q 959 750 1161 570 
Q 1363 391 1709 391 
Q 2188 391 2477 730 
Q 2766 1069 2766 1631 
L 2766 1759 
L 2194 1759 
z
M 3341 1997 
L 3341 0 
L 2766 0 
L 2766 531 
Q 2569 213 2275 61 
Q 1981 -91 1556 -91 
Q 1019 -91 701 211 
Q 384 513 384 1019 
Q 384 1609 779 1909 
Q 1175 2209 1959 2209 
L 2766 2209 
L 2766 2266 
Q 2766 2663 2505 2880 
Q 2244 3097 1772 3097 
Q 1472 3097 1187 3025 
Q 903 2953 641 2809 
L 641 3341 
Q 956 3463 1253 3523 
Q 1550 3584 1831 3584 
Q 2591 3584 2966 3190 
Q 3341 2797 3341 1997 
z
" transform="scale(0.015625)"/>
       <path id="DejaVuSans-6d" d="M 3328 2828 
Q 3544 3216 3844 3400 
Q 4144 3584 4550 3584 
Q 5097 3584 5394 3201 
Q 5691 2819 5691 2113 
L 5691 0 
L 5113 0 
L 5113 2094 
Q 5113 2597 4934 2840 
Q 4756 3084 4391 3084 
Q 3944 3084 3684 2787 
Q 3425 2491 3425 1978 
L 3425 0 
L 2847 0 
L 2847 2094 
Q 2847 2600 2669 2842 
Q 2491 3084 2119 3084 
Q 1678 3084 1418 2786 
Q 1159 2488 1159 1978 
L 1159 0 
L 581 0 
L 581 3500 
L 1159 3500 
L 1159 2956 
Q 1356 3278 1631 3431 
Q 1906 3584 2284 3584 
Q 2666 3584 2933 3390 
Q 3200 3197 3328 2828 
z
" transform="scale(0.015625)"/>
       <path id="DejaVuSans-65" d="M 3597 1894 
L 3597 1613 
L 953 1613 
Q 991 1019 1311 708 
Q 1631 397 2203 397 
Q 2534 397 2845 478 
Q 3156 559 3463 722 
L 3463 178 
Q 3153 47 2828 -22 
Q 2503 -91 2169 -91 
Q 1331 -91 842 396 
Q 353 884 353 1716 
Q 353 2575 817 3079 
Q 1281 3584 2069 3584 
Q 2775 3584 3186 3129 
Q 3597 2675 3597 1894 
z
M 3022 2063 
Q 3016 2534 2758 2815 
Q 2500 3097 2075 3097 
Q 1594 3097 1305 2825 
Q 1016 2553 972 2059 
L 3022 2063 
z
" transform="scale(0.015625)"/>
      </defs>
      <use xlink:href="#DejaVuSans-47"/>
      <use xlink:href="#DejaVuSans-61" transform="translate(77.490234 0)"/>
      <use xlink:href="#DejaVuSans-6d" transform="translate(138.769531 0)"/>
      <use xlink:href="#DejaVuSans-65" transform="translate(236.181641 0)"/>
     </g>
    </g>
   </g>
   <g id="matplotlib.axis_2">
    <g id="ytick_1">
     <g id="line2d_7">
      <defs>
       <path id="mfc31538f37" d="M 0 0 
L -3.5 0 
" style="stroke: #000000; stroke-width: 0.8"/>
      </defs>
      <g>
       <use xlink:href="#mfc31538f37" x="30.103125" y="303.208875" style="stroke: #000000; stroke-width: 0.8"/>
      </g>
     </g>
     <g id="text_8">
      <!-- 0.0 -->
      <g transform="translate(7.2 307.008094) scale(0.1 -0.1)">
       <defs>
        <path id="DejaVuSans-2e" d="M 684 794 
L 1344 794 
L 1344 0 
L 684 0 
L 684 794 
z
" transform="scale(0.015625)"/>
       </defs>
       <use xlink:href="#DejaVuSans-30"/>
       <use xlink:href="#DejaVuSans-2e" transform="translate(63.623047 0)"/>
       <use xlink:href="#DejaVuSans-30" transform="translate(95.410156 0)"/>
      </g>
     </g>
    </g>
    <g id="ytick_2">
     <g id="line2d_8">
      <g>
       <use xlink:href="#mfc31538f37" x="30.103125" y="254.824875" style="stroke: #000000; stroke-width: 0.8"/>
      </g>
     </g>
     <g id="text_9">
      <!-- 0.2 -->
      <g transform="translate(7.2 258.624094) scale(0.1 -0.1)">
       <use xlink:href="#DejaVuSans-30"/>
       <use xlink:href="#DejaVuSans-2e" transform="translate(63.623047 0)"/>
       <use xlink:href="#DejaVuSans-32" transform="translate(95.410156 0)"/>
      </g>
     </g>
    </g>
    <g id="ytick_3">
     <g id="line2d_9">
      <g>
       <use xlink:href="#mfc31538f37" x="30.103125" y="206.440875" style="stroke: #000000; stroke-width: 0.8"/>
      </g>
     </g>
     <g id="text_10">
      <!-- 0.4 -->
      <g transform="translate(7.2 210.240094) scale(0.1 -0.1)">
       <use xlink:href="#DejaVuSans-30"/>
       <use xlink:href="#DejaVuSans-2e" transform="translate(63.623047 0)"/>
       <use xlink:href="#DejaVuSans-34" transform="translate(95.410156 0)"/>
      </g>
     </g>
    </g>
    <g id="ytick_4">
     <g id="line2d_10">
      <g>
       <use xlink:href="#mfc31538f37" x="30.103125" y="158.056875" style="stroke: #000000; stroke-width: 0.8"/>
      </g>
     </g>
     <g id="text_11">
      <!-- 0.6 -->
      <g transform="translate(7.2 161.856094) scale(0.1 -0.1)">
       <use xlink:href="#DejaVuSans-30"/>
       <use xlink:href="#DejaVuSans-2e" transform="translate(63.623047 0)"/>
       <use xlink:href="#DejaVuSans-36" transform="translate(95.410156 0)"/>
      </g>
     </g>
    </g>
    <g id="ytick_5">
     <g id="line2d_11">
      <g>
       <use xlink:href="#mfc31538f37" x="30.103125" y="109.672875" style="stroke: #000000; stroke-width: 0.8"/>
      </g>
     </g>
     <g id="text_12">
      <!-- 0.8 -->
      <g transform="translate(7.2 113.472094) scale(0.1 -0.1)">
       <use xlink:href="#DejaVuSans-30"/>
       <use xlink:href="#DejaVuSans-2e" transform="translate(63.623047 0)"/>
       <use xlink:href="#DejaVuSans-38" transform="translate(95.410156 0)"/>
      </g>
     </g>
    </g>
    <g id="ytick_6">
     <g id="line2d_12">
      <g>
       <use xlink:href="#mfc31538f37" x="30.103125" y="61.288875" style="stroke: #000000; stroke-width: 0.8"/>
      </g>
     </g>
     <g id="text_13">
      <!-- 1.0 -->
      <g transform="translate(7.2 65.088094) scale(0.1 -0.1)">
       <use xlink:href="#DejaVuSans-31"/>
       <use xlink:href="#DejaVuSans-2e" transform="translate(63.623047 0)"/>
       <use xlink:href="#DejaVuSans-30" transform="translate(95.410156 0)"/>
      </g>
     </g>
    </g>
   </g>
   <g id="LineCollection_1">
    <path d="M 46.335852 303.208875 
L 370.990398 303.208875 
" clip-path="url(#p2d9c5d8444)" style="fill: none; stroke: #808080; stroke-opacity: 0.5; stroke-width: 1.5"/>
    <path d="M 46.335852 182.248875 
L 370.990398 182.248875 
" clip-path="url(#p2d9c5d8444)" style="fill: none; stroke: #808080; stroke-opacity: 0.5; stroke-width: 1.5"/>
    <path d="M 46.335852 61.288875 
L 370.990398 61.288875 
" clip-path="url(#p2d9c5d8444)" style="fill: none; stroke: #808080; stroke-opacity: 0.5; stroke-width: 1.5"/>
   </g>
   <g id="patch_3">
    <path d="M 30.103125 315.304875 
L 30.103125 49.192875 
" style="fill: none; stroke: #000000; stroke-width: 0.8; stroke-linejoin: miter; stroke-linecap: square"/>
   </g>
   <g id="patch_4">
    <path d="M 387.223125 315.304875 
L 387.223125 49.192875 
" style="fill: none; stroke: #000000; stroke-width: 0.8; stroke-linejoin: miter; stroke-linecap: square"/>
   </g>
   <g id="patch_5">
    <path d="M 30.103125 315.304875 
L 387.223125 315.304875 
" style="fill: none; stroke: #000000; stroke-width: 0.8; stroke-linejoin: miter; stroke-linecap: square"/>
   </g>
   <g id="patch_6">
    <path d="M 30.103125 49.192875 
L 387.223125 49.192875 
" style="fill: none; stroke: #000000; stroke-width: 0.8; stroke-linejoin: miter; stroke-linecap: square"/>
   </g>
   <g id="text_14">
    <g id="patch_7">
     <path d="M 187.328299 72.5829 
L 236.620174 72.5829 
L 236.620174 53.04915 
L 187.328299 53.04915 
z
" style="fill: #ffffff"/>
    </g>
    <!-- RL Win -->
    <g transform="translate(191.288299 66.127275) scale(0.12 -0.12)">
     <defs>
      <path id="DejaVuSans-52" d="M 2841 2188 
Q 3044 2119 3236 1894 
Q 3428 1669 3622 1275 
L 4263 0 
L 3584 0 
L 2988 1197 
Q 2756 1666 2539 1819 
Q 2322 1972 1947 1972 
L 1259 1972 
L 1259 0 
L 628 0 
L 628 4666 
L 2053 4666 
Q 2853 4666 3247 4331 
Q 3641 3997 3641 3322 
Q 3641 2881 3436 2590 
Q 3231 2300 2841 2188 
z
M 1259 4147 
L 1259 2491 
L 2053 2491 
Q 2509 2491 2742 2702 
Q 2975 2913 2975 3322 
Q 2975 3731 2742 3939 
Q 2509 4147 2053 4147 
L 1259 4147 
z
" transform="scale(0.015625)"/>
      <path id="DejaVuSans-4c" d="M 628 4666 
L 1259 4666 
L 1259 531 
L 3531 531 
L 3531 0 
L 628 0 
L 628 4666 
z
" transform="scale(0.015625)"/>
      <path id="DejaVuSans-20" transform="scale(0.015625)"/>
      <path id="DejaVuSans-57" d="M 213 4666 
L 850 4666 
L 1831 722 
L 2809 4666 
L 3519 4666 
L 4500 722 
L 5478 4666 
L 6119 4666 
L 4947 0 
L 4153 0 
L 3169 4050 
L 2175 0 
L 1381 0 
L 213 4666 
z
" transform="scale(0.015625)"/>
      <path id="DejaVuSans-69" d="M 603 3500 
L 1178 3500 
L 1178 0 
L 603 0 
L 603 3500 
z
M 603 4863 
L 1178 4863 
L 1178 4134 
L 603 4134 
L 603 4863 
z
" transform="scale(0.015625)"/>
      <path id="DejaVuSans-6e" d="M 3513 2113 
L 3513 0 
L 2938 0 
L 2938 2094 
Q 2938 2591 2744 2837 
Q 2550 3084 2163 3084 
Q 1697 3084 1428 2787 
Q 1159 2491 1159 1978 
L 1159 0 
L 581 0 
L 581 3500 
L 1159 3500 
L 1159 2956 
Q 1366 3272 1645 3428 
Q 1925 3584 2291 3584 
Q 2894 3584 3203 3211 
Q 3513 2838 3513 2113 
z
" transform="scale(0.015625)"/>
     </defs>
     <use xlink:href="#DejaVuSans-52"/>
     <use xlink:href="#DejaVuSans-4c" transform="translate(69.482422 0)"/>
     <use xlink:href="#DejaVuSans-20" transform="translate(125.195312 0)"/>
     <use xlink:href="#DejaVuSans-57" transform="translate(156.982422 0)"/>
     <use xlink:href="#DejaVuSans-69" transform="translate(253.609375 0)"/>
     <use xlink:href="#DejaVuSans-6e" transform="translate(281.392578 0)"/>
    </g>
   </g>
   <g id="text_15">
    <g id="patch_8">
     <path d="M 199.178299 193.5429 
L 224.770174 193.5429 
L 224.770174 174.00915 
L 199.178299 174.00915 
z
" style="fill: #ffffff"/>
    </g>
    <!-- Tie -->
    <g transform="translate(203.138299 187.087275) scale(0.12 -0.12)">
     <defs>
      <path id="DejaVuSans-54" d="M -19 4666 
L 3928 4666 
L 3928 4134 
L 2272 4134 
L 2272 0 
L 1638 0 
L 1638 4134 
L -19 4134 
L -19 4666 
z
" transform="scale(0.015625)"/>
     </defs>
     <use xlink:href="#DejaVuSans-54"/>
     <use xlink:href="#DejaVuSans-69" transform="translate(57.958984 0)"/>
     <use xlink:href="#DejaVuSans-65" transform="translate(85.742188 0)"/>
    </g>
   </g>
   <g id="text_16">
    <g id="patch_9">
     <path d="M 185.434549 309.6645 
L 238.513924 309.6645 
L 238.513924 290.13075 
L 185.434549 290.13075 
z
" style="fill: #ffffff"/>
    </g>
    <!-- RL Loss -->
    <g transform="translate(189.394549 303.208875) scale(0.12 -0.12)">
     <defs>
      <path id="DejaVuSans-6f" d="M 1959 3097 
Q 1497 3097 1228 2736 
Q 959 2375 959 1747 
Q 959 1119 1226 758 
Q 1494 397 1959 397 
Q 2419 397 2687 759 
Q 2956 1122 2956 1747 
Q 2956 2369 2687 2733 
Q 2419 3097 1959 3097 
z
M 1959 3584 
Q 2709 3584 3137 3096 
Q 3566 2609 3566 1747 
Q 3566 888 3137 398 
Q 2709 -91 1959 -91 
Q 1206 -91 779 398 
Q 353 888 353 1747 
Q 353 2609 779 3096 
Q 1206 3584 1959 3584 
z
" transform="scale(0.015625)"/>
      <path id="DejaVuSans-73" d="M 2834 3397 
L 2834 2853 
Q 2591 2978 2328 3040 
Q 2066 3103 1784 3103 
Q 1356 3103 1142 2972 
Q 928 2841 928 2578 
Q 928 2378 1081 2264 
Q 1234 2150 1697 2047 
L 1894 2003 
Q 2506 1872 2764 1633 
Q 3022 1394 3022 966 
Q 3022 478 2636 193 
Q 2250 -91 1575 -91 
Q 1294 -91 989 -36 
Q 684 19 347 128 
L 347 722 
Q 666 556 975 473 
Q 1284 391 1588 391 
Q 1994 391 2212 530 
Q 2431 669 2431 922 
Q 2431 1156 2273 1281 
Q 2116 1406 1581 1522 
L 1381 1569 
Q 847 1681 609 1914 
Q 372 2147 372 2553 
Q 372 3047 722 3315 
Q 1072 3584 1716 3584 
Q 2034 3584 2315 3537 
Q 2597 3491 2834 3397 
z
" transform="scale(0.015625)"/>
     </defs>
     <use xlink:href="#DejaVuSans-52"/>
     <use xlink:href="#DejaVuSans-4c" transform="translate(69.482422 0)"/>
     <use xlink:href="#DejaVuSans-20" transform="translate(125.195312 0)"/>
     <use xlink:href="#DejaVuSans-4c" transform="translate(156.982422 0)"/>
     <use xlink:href="#DejaVuSans-6f" transform="translate(210.945312 0)"/>
     <use xlink:href="#DejaVuSans-73" transform="translate(272.126953 0)"/>
     <use xlink:href="#DejaVuSans-73" transform="translate(324.226562 0)"/>
    </g>
   </g>
   <g id="PathCollection_1">
    <defs>
     <path id="me3046459b7" d="M 0 1.118034 
C 0.296506 1.118034 0.580908 1.000231 0.790569 0.790569 
C 1.000231 0.580908 1.118034 0.296506 1.118034 0 
C 1.118034 -0.296506 1.000231 -0.580908 0.790569 -0.790569 
C 0.580908 -1.000231 0.296506 -1.118034 0 -1.118034 
C -0.296506 -1.118034 -0.580908 -1.000231 -0.790569 -0.790569 
C -1.000231 -0.580908 -1.118034 -0.296506 -1.118034 0 
C -1.118034 0.296506 -1.000231 0.580908 -0.790569 0.790569 
C -0.580908 1.000231 -0.296506 1.118034 0 1.118034 
z
" style="stroke: #1f77b4"/>
    </defs>
    <g clip-path="url(#p2d9c5d8444)">
     <use xlink:href="#me3046459b7" x="46.335852" y="293.894955" style="fill: #1f77b4; stroke: #1f77b4"/>
     <use xlink:href="#me3046459b7" x="49.64862" y="291.838635" style="fill: #1f77b4; stroke: #1f77b4"/>
     <use xlink:href="#me3046459b7" x="52.961388" y="290.145195" style="fill: #1f77b4; stroke: #1f77b4"/>
     <use xlink:href="#me3046459b7" x="56.274155" y="288.088875" style="fill: #1f77b4; stroke: #1f77b4"/>
     <use xlink:href="#me3046459b7" x="59.586923" y="286.637355" style="fill: #1f77b4; stroke: #1f77b4"/>
     <use xlink:href="#me3046459b7" x="62.899691" y="283.008555" style="fill: #1f77b4; stroke: #1f77b4"/>
     <use xlink:href="#me3046459b7" x="66.212458" y="282.766635" style="fill: #1f77b4; stroke: #1f77b4"/>
     <use xlink:href="#me3046459b7" x="69.525226" y="281.677995" style="fill: #1f77b4; stroke: #1f77b4"/>
     <use xlink:href="#me3046459b7" x="72.837994" y="277.444395" style="fill: #1f77b4; stroke: #1f77b4"/>
     <use xlink:href="#me3046459b7" x="76.150761" y="275.871915" style="fill: #1f77b4; stroke: #1f77b4"/>
     <use xlink:href="#me3046459b7" x="79.463529" y="273.573675" style="fill: #1f77b4; stroke: #1f77b4"/>
     <use xlink:href="#me3046459b7" x="82.776297" y="270.549675" style="fill: #1f77b4; stroke: #1f77b4"/>
     <use xlink:href="#me3046459b7" x="86.089064" y="267.767595" style="fill: #1f77b4; stroke: #1f77b4"/>
     <use xlink:href="#me3046459b7" x="89.401832" y="269.702955" style="fill: #1f77b4; stroke: #1f77b4"/>
     <use xlink:href="#me3046459b7" x="92.7146" y="270.791595" style="fill: #1f77b4; stroke: #1f77b4"/>
     <use xlink:href="#me3046459b7" x="96.027367" y="263.292075" style="fill: #1f77b4; stroke: #1f77b4"/>
     <use xlink:href="#me3046459b7" x="99.340135" y="262.929195" style="fill: #1f77b4; stroke: #1f77b4"/>
     <use xlink:href="#me3046459b7" x="102.652903" y="262.203435" style="fill: #1f77b4; stroke: #1f77b4"/>
     <use xlink:href="#me3046459b7" x="105.965671" y="262.687275" style="fill: #1f77b4; stroke: #1f77b4"/>
     <use xlink:href="#me3046459b7" x="109.278438" y="259.905195" style="fill: #1f77b4; stroke: #1f77b4"/>
     <use xlink:href="#me3046459b7" x="112.591206" y="255.550635" style="fill: #1f77b4; stroke: #1f77b4"/>
     <use xlink:href="#me3046459b7" x="115.903974" y="258.574635" style="fill: #1f77b4; stroke: #1f77b4"/>
     <use xlink:href="#me3046459b7" x="119.216741" y="254.824875" style="fill: #1f77b4; stroke: #1f77b4"/>
     <use xlink:href="#me3046459b7" x="122.529509" y="253.615275" style="fill: #1f77b4; stroke: #1f77b4"/>
     <use xlink:href="#me3046459b7" x="125.842277" y="252.284715" style="fill: #1f77b4; stroke: #1f77b4"/>
     <use xlink:href="#me3046459b7" x="129.155044" y="252.889515" style="fill: #1f77b4; stroke: #1f77b4"/>
     <use xlink:href="#me3046459b7" x="132.467812" y="252.163755" style="fill: #1f77b4; stroke: #1f77b4"/>
     <use xlink:href="#me3046459b7" x="135.78058" y="248.897835" style="fill: #1f77b4; stroke: #1f77b4"/>
     <use xlink:href="#me3046459b7" x="139.093347" y="248.293035" style="fill: #1f77b4; stroke: #1f77b4"/>
     <use xlink:href="#me3046459b7" x="142.406115" y="249.502635" style="fill: #1f77b4; stroke: #1f77b4"/>
     <use xlink:href="#me3046459b7" x="145.718883" y="245.873835" style="fill: #1f77b4; stroke: #1f77b4"/>
     <use xlink:href="#me3046459b7" x="149.03165" y="245.994795" style="fill: #1f77b4; stroke: #1f77b4"/>
     <use xlink:href="#me3046459b7" x="152.344418" y="244.180395" style="fill: #1f77b4; stroke: #1f77b4"/>
     <use xlink:href="#me3046459b7" x="155.657186" y="245.510955" style="fill: #1f77b4; stroke: #1f77b4"/>
     <use xlink:href="#me3046459b7" x="158.969953" y="242.365995" style="fill: #1f77b4; stroke: #1f77b4"/>
     <use xlink:href="#me3046459b7" x="162.282721" y="244.180395" style="fill: #1f77b4; stroke: #1f77b4"/>
     <use xlink:href="#me3046459b7" x="165.595489" y="242.245035" style="fill: #1f77b4; stroke: #1f77b4"/>
     <use xlink:href="#me3046459b7" x="168.908256" y="242.124075" style="fill: #1f77b4; stroke: #1f77b4"/>
     <use xlink:href="#me3046459b7" x="172.221024" y="239.100075" style="fill: #1f77b4; stroke: #1f77b4"/>
     <use xlink:href="#me3046459b7" x="175.533792" y="240.793515" style="fill: #1f77b4; stroke: #1f77b4"/>
     <use xlink:href="#me3046459b7" x="178.846559" y="238.253355" style="fill: #1f77b4; stroke: #1f77b4"/>
     <use xlink:href="#me3046459b7" x="182.159327" y="240.309675" style="fill: #1f77b4; stroke: #1f77b4"/>
     <use xlink:href="#me3046459b7" x="185.472095" y="234.019755" style="fill: #1f77b4; stroke: #1f77b4"/>
     <use xlink:href="#me3046459b7" x="188.784863" y="236.680875" style="fill: #1f77b4; stroke: #1f77b4"/>
     <use xlink:href="#me3046459b7" x="192.09763" y="233.535915" style="fill: #1f77b4; stroke: #1f77b4"/>
     <use xlink:href="#me3046459b7" x="195.410398" y="235.229355" style="fill: #1f77b4; stroke: #1f77b4"/>
     <use xlink:href="#me3046459b7" x="198.723166" y="235.108395" style="fill: #1f77b4; stroke: #1f77b4"/>
     <use xlink:href="#me3046459b7" x="202.035933" y="229.060395" style="fill: #1f77b4; stroke: #1f77b4"/>
     <use xlink:href="#me3046459b7" x="205.348701" y="230.149035" style="fill: #1f77b4; stroke: #1f77b4"/>
     <use xlink:href="#me3046459b7" x="208.661469" y="227.487915" style="fill: #1f77b4; stroke: #1f77b4"/>
     <use xlink:href="#me3046459b7" x="211.974236" y="229.181355" style="fill: #1f77b4; stroke: #1f77b4"/>
     <use xlink:href="#me3046459b7" x="215.287004" y="230.874795" style="fill: #1f77b4; stroke: #1f77b4"/>
     <use xlink:href="#me3046459b7" x="218.599772" y="229.423275" style="fill: #1f77b4; stroke: #1f77b4"/>
     <use xlink:href="#me3046459b7" x="221.912539" y="228.576555" style="fill: #1f77b4; stroke: #1f77b4"/>
     <use xlink:href="#me3046459b7" x="225.225307" y="228.818475" style="fill: #1f77b4; stroke: #1f77b4"/>
     <use xlink:href="#me3046459b7" x="228.538075" y="231.237675" style="fill: #1f77b4; stroke: #1f77b4"/>
     <use xlink:href="#me3046459b7" x="231.850842" y="225.068715" style="fill: #1f77b4; stroke: #1f77b4"/>
     <use xlink:href="#me3046459b7" x="235.16361" y="226.399275" style="fill: #1f77b4; stroke: #1f77b4"/>
     <use xlink:href="#me3046459b7" x="238.476378" y="228.818475" style="fill: #1f77b4; stroke: #1f77b4"/>
     <use xlink:href="#me3046459b7" x="241.789145" y="221.318955" style="fill: #1f77b4; stroke: #1f77b4"/>
     <use xlink:href="#me3046459b7" x="245.101913" y="224.826795" style="fill: #1f77b4; stroke: #1f77b4"/>
     <use xlink:href="#me3046459b7" x="248.414681" y="225.068715" style="fill: #1f77b4; stroke: #1f77b4"/>
     <use xlink:href="#me3046459b7" x="251.727448" y="223.617195" style="fill: #1f77b4; stroke: #1f77b4"/>
     <use xlink:href="#me3046459b7" x="255.040216" y="223.859115" style="fill: #1f77b4; stroke: #1f77b4"/>
     <use xlink:href="#me3046459b7" x="258.352984" y="221.318955" style="fill: #1f77b4; stroke: #1f77b4"/>
     <use xlink:href="#me3046459b7" x="261.665752" y="222.044715" style="fill: #1f77b4; stroke: #1f77b4"/>
     <use xlink:href="#me3046459b7" x="264.978519" y="221.681835" style="fill: #1f77b4; stroke: #1f77b4"/>
     <use xlink:href="#me3046459b7" x="268.291287" y="219.746475" style="fill: #1f77b4; stroke: #1f77b4"/>
     <use xlink:href="#me3046459b7" x="271.604055" y="223.980075" style="fill: #1f77b4; stroke: #1f77b4"/>
     <use xlink:href="#me3046459b7" x="274.916822" y="220.593195" style="fill: #1f77b4; stroke: #1f77b4"/>
     <use xlink:href="#me3046459b7" x="278.22959" y="218.053035" style="fill: #1f77b4; stroke: #1f77b4"/>
     <use xlink:href="#me3046459b7" x="281.542358" y="218.778795" style="fill: #1f77b4; stroke: #1f77b4"/>
     <use xlink:href="#me3046459b7" x="284.855125" y="218.536875" style="fill: #1f77b4; stroke: #1f77b4"/>
     <use xlink:href="#me3046459b7" x="288.167893" y="215.029035" style="fill: #1f77b4; stroke: #1f77b4"/>
     <use xlink:href="#me3046459b7" x="291.480661" y="214.545195" style="fill: #1f77b4; stroke: #1f77b4"/>
     <use xlink:href="#me3046459b7" x="294.793428" y="220.109355" style="fill: #1f77b4; stroke: #1f77b4"/>
     <use xlink:href="#me3046459b7" x="298.106196" y="215.633835" style="fill: #1f77b4; stroke: #1f77b4"/>
     <use xlink:href="#me3046459b7" x="301.418964" y="217.811115" style="fill: #1f77b4; stroke: #1f77b4"/>
     <use xlink:href="#me3046459b7" x="304.731731" y="220.230315" style="fill: #1f77b4; stroke: #1f77b4"/>
     <use xlink:href="#me3046459b7" x="308.044499" y="216.238635" style="fill: #1f77b4; stroke: #1f77b4"/>
     <use xlink:href="#me3046459b7" x="311.357267" y="215.754795" style="fill: #1f77b4; stroke: #1f77b4"/>
     <use xlink:href="#me3046459b7" x="314.670034" y="216.359595" style="fill: #1f77b4; stroke: #1f77b4"/>
     <use xlink:href="#me3046459b7" x="317.982802" y="214.303275" style="fill: #1f77b4; stroke: #1f77b4"/>
     <use xlink:href="#me3046459b7" x="321.29557" y="214.303275" style="fill: #1f77b4; stroke: #1f77b4"/>
     <use xlink:href="#me3046459b7" x="324.608337" y="212.972715" style="fill: #1f77b4; stroke: #1f77b4"/>
     <use xlink:href="#me3046459b7" x="327.921105" y="213.214635" style="fill: #1f77b4; stroke: #1f77b4"/>
     <use xlink:href="#me3046459b7" x="331.233873" y="211.158315" style="fill: #1f77b4; stroke: #1f77b4"/>
     <use xlink:href="#me3046459b7" x="334.54664" y="210.311595" style="fill: #1f77b4; stroke: #1f77b4"/>
     <use xlink:href="#me3046459b7" x="337.859408" y="211.642155" style="fill: #1f77b4; stroke: #1f77b4"/>
     <use xlink:href="#me3046459b7" x="341.172176" y="211.037355" style="fill: #1f77b4; stroke: #1f77b4"/>
     <use xlink:href="#me3046459b7" x="344.484944" y="210.311595" style="fill: #1f77b4; stroke: #1f77b4"/>
     <use xlink:href="#me3046459b7" x="347.797711" y="208.860075" style="fill: #1f77b4; stroke: #1f77b4"/>
     <use xlink:href="#me3046459b7" x="351.110479" y="209.706795" style="fill: #1f77b4; stroke: #1f77b4"/>
     <use xlink:href="#me3046459b7" x="354.423247" y="210.069675" style="fill: #1f77b4; stroke: #1f77b4"/>
     <use xlink:href="#me3046459b7" x="357.736014" y="207.045675" style="fill: #1f77b4; stroke: #1f77b4"/>
     <use xlink:href="#me3046459b7" x="361.048782" y="210.311595" style="fill: #1f77b4; stroke: #1f77b4"/>
     <use xlink:href="#me3046459b7" x="364.36155" y="209.222955" style="fill: #1f77b4; stroke: #1f77b4"/>
     <use xlink:href="#me3046459b7" x="367.674317" y="208.981035" style="fill: #1f77b4; stroke: #1f77b4"/>
     <use xlink:href="#me3046459b7" x="370.987085" y="207.650475" style="fill: #1f77b4; stroke: #1f77b4"/>
    </g>
   </g>
   <g id="text_17">
    <!-- Training Session: -->
    <g transform="translate(158.17125 16.318125) scale(0.12 -0.12)">
     <defs>
      <path id="DejaVuSans-72" d="M 2631 2963 
Q 2534 3019 2420 3045 
Q 2306 3072 2169 3072 
Q 1681 3072 1420 2755 
Q 1159 2438 1159 1844 
L 1159 0 
L 581 0 
L 581 3500 
L 1159 3500 
L 1159 2956 
Q 1341 3275 1631 3429 
Q 1922 3584 2338 3584 
Q 2397 3584 2469 3576 
Q 2541 3569 2628 3553 
L 2631 2963 
z
" transform="scale(0.015625)"/>
      <path id="DejaVuSans-67" d="M 2906 1791 
Q 2906 2416 2648 2759 
Q 2391 3103 1925 3103 
Q 1463 3103 1205 2759 
Q 947 2416 947 1791 
Q 947 1169 1205 825 
Q 1463 481 1925 481 
Q 2391 481 2648 825 
Q 2906 1169 2906 1791 
z
M 3481 434 
Q 3481 -459 3084 -895 
Q 2688 -1331 1869 -1331 
Q 1566 -1331 1297 -1286 
Q 1028 -1241 775 -1147 
L 775 -588 
Q 1028 -725 1275 -790 
Q 1522 -856 1778 -856 
Q 2344 -856 2625 -561 
Q 2906 -266 2906 331 
L 2906 616 
Q 2728 306 2450 153 
Q 2172 0 1784 0 
Q 1141 0 747 490 
Q 353 981 353 1791 
Q 353 2603 747 3093 
Q 1141 3584 1784 3584 
Q 2172 3584 2450 3431 
Q 2728 3278 2906 2969 
L 2906 3500 
L 3481 3500 
L 3481 434 
z
" transform="scale(0.015625)"/>
      <path id="DejaVuSans-53" d="M 3425 4513 
L 3425 3897 
Q 3066 4069 2747 4153 
Q 2428 4238 2131 4238 
Q 1616 4238 1336 4038 
Q 1056 3838 1056 3469 
Q 1056 3159 1242 3001 
Q 1428 2844 1947 2747 
L 2328 2669 
Q 3034 2534 3370 2195 
Q 3706 1856 3706 1288 
Q 3706 609 3251 259 
Q 2797 -91 1919 -91 
Q 1588 -91 1214 -16 
Q 841 59 441 206 
L 441 856 
Q 825 641 1194 531 
Q 1563 422 1919 422 
Q 2459 422 2753 634 
Q 3047 847 3047 1241 
Q 3047 1584 2836 1778 
Q 2625 1972 2144 2069 
L 1759 2144 
Q 1053 2284 737 2584 
Q 422 2884 422 3419 
Q 422 4038 858 4394 
Q 1294 4750 2059 4750 
Q 2388 4750 2728 4690 
Q 3069 4631 3425 4513 
z
" transform="scale(0.015625)"/>
      <path id="DejaVuSans-3a" d="M 750 794 
L 1409 794 
L 1409 0 
L 750 0 
L 750 794 
z
M 750 3309 
L 1409 3309 
L 1409 2516 
L 750 2516 
L 750 3309 
z
" transform="scale(0.015625)"/>
     </defs>
     <use xlink:href="#DejaVuSans-54"/>
     <use xlink:href="#DejaVuSans-72" transform="translate(46.333984 0)"/>
     <use xlink:href="#DejaVuSans-61" transform="translate(87.447266 0)"/>
     <use xlink:href="#DejaVuSans-69" transform="translate(148.726562 0)"/>
     <use xlink:href="#DejaVuSans-6e" transform="translate(176.509766 0)"/>
     <use xlink:href="#DejaVuSans-69" transform="translate(239.888672 0)"/>
     <use xlink:href="#DejaVuSans-6e" transform="translate(267.671875 0)"/>
     <use xlink:href="#DejaVuSans-67" transform="translate(331.050781 0)"/>
     <use xlink:href="#DejaVuSans-20" transform="translate(394.527344 0)"/>
     <use xlink:href="#DejaVuSans-53" transform="translate(426.314453 0)"/>
     <use xlink:href="#DejaVuSans-65" transform="translate(489.791016 0)"/>
     <use xlink:href="#DejaVuSans-73" transform="translate(551.314453 0)"/>
     <use xlink:href="#DejaVuSans-73" transform="translate(603.414062 0)"/>
     <use xlink:href="#DejaVuSans-69" transform="translate(655.513672 0)"/>
     <use xlink:href="#DejaVuSans-6f" transform="translate(683.296875 0)"/>
     <use xlink:href="#DejaVuSans-6e" transform="translate(744.478516 0)"/>
     <use xlink:href="#DejaVuSans-3a" transform="translate(807.857422 0)"/>
    </g>
    <!-- Reinforcement Learner vs Optimal Opponent -->
    <g transform="translate(74.17125 29.7555) scale(0.12 -0.12)">
     <defs>
      <path id="DejaVuSans-66" d="M 2375 4863 
L 2375 4384 
L 1825 4384 
Q 1516 4384 1395 4259 
Q 1275 4134 1275 3809 
L 1275 3500 
L 2222 3500 
L 2222 3053 
L 1275 3053 
L 1275 0 
L 697 0 
L 697 3053 
L 147 3053 
L 147 3500 
L 697 3500 
L 697 3744 
Q 697 4328 969 4595 
Q 1241 4863 1831 4863 
L 2375 4863 
z
" transform="scale(0.015625)"/>
      <path id="DejaVuSans-63" d="M 3122 3366 
L 3122 2828 
Q 2878 2963 2633 3030 
Q 2388 3097 2138 3097 
Q 1578 3097 1268 2742 
Q 959 2388 959 1747 
Q 959 1106 1268 751 
Q 1578 397 2138 397 
Q 2388 397 2633 464 
Q 2878 531 3122 666 
L 3122 134 
Q 2881 22 2623 -34 
Q 2366 -91 2075 -91 
Q 1284 -91 818 406 
Q 353 903 353 1747 
Q 353 2603 823 3093 
Q 1294 3584 2113 3584 
Q 2378 3584 2631 3529 
Q 2884 3475 3122 3366 
z
" transform="scale(0.015625)"/>
      <path id="DejaVuSans-74" d="M 1172 4494 
L 1172 3500 
L 2356 3500 
L 2356 3053 
L 1172 3053 
L 1172 1153 
Q 1172 725 1289 603 
Q 1406 481 1766 481 
L 2356 481 
L 2356 0 
L 1766 0 
Q 1100 0 847 248 
Q 594 497 594 1153 
L 594 3053 
L 172 3053 
L 172 3500 
L 594 3500 
L 594 4494 
L 1172 4494 
z
" transform="scale(0.015625)"/>
      <path id="DejaVuSans-76" d="M 191 3500 
L 800 3500 
L 1894 563 
L 2988 3500 
L 3597 3500 
L 2284 0 
L 1503 0 
L 191 3500 
z
" transform="scale(0.015625)"/>
      <path id="DejaVuSans-4f" d="M 2522 4238 
Q 1834 4238 1429 3725 
Q 1025 3213 1025 2328 
Q 1025 1447 1429 934 
Q 1834 422 2522 422 
Q 3209 422 3611 934 
Q 4013 1447 4013 2328 
Q 4013 3213 3611 3725 
Q 3209 4238 2522 4238 
z
M 2522 4750 
Q 3503 4750 4090 4092 
Q 4678 3434 4678 2328 
Q 4678 1225 4090 567 
Q 3503 -91 2522 -91 
Q 1538 -91 948 565 
Q 359 1222 359 2328 
Q 359 3434 948 4092 
Q 1538 4750 2522 4750 
z
" transform="scale(0.015625)"/>
      <path id="DejaVuSans-70" d="M 1159 525 
L 1159 -1331 
L 581 -1331 
L 581 3500 
L 1159 3500 
L 1159 2969 
Q 1341 3281 1617 3432 
Q 1894 3584 2278 3584 
Q 2916 3584 3314 3078 
Q 3713 2572 3713 1747 
Q 3713 922 3314 415 
Q 2916 -91 2278 -91 
Q 1894 -91 1617 61 
Q 1341 213 1159 525 
z
M 3116 1747 
Q 3116 2381 2855 2742 
Q 2594 3103 2138 3103 
Q 1681 3103 1420 2742 
Q 1159 2381 1159 1747 
Q 1159 1113 1420 752 
Q 1681 391 2138 391 
Q 2594 391 2855 752 
Q 3116 1113 3116 1747 
z
" transform="scale(0.015625)"/>
      <path id="DejaVuSans-6c" d="M 603 4863 
L 1178 4863 
L 1178 0 
L 603 0 
L 603 4863 
z
" transform="scale(0.015625)"/>
     </defs>
     <use xlink:href="#DejaVuSans-52"/>
     <use xlink:href="#DejaVuSans-65" transform="translate(64.982422 0)"/>
     <use xlink:href="#DejaVuSans-69" transform="translate(126.505859 0)"/>
     <use xlink:href="#DejaVuSans-6e" transform="translate(154.289062 0)"/>
     <use xlink:href="#DejaVuSans-66" transform="translate(217.667969 0)"/>
     <use xlink:href="#DejaVuSans-6f" transform="translate(252.873047 0)"/>
     <use xlink:href="#DejaVuSans-72" transform="translate(314.054688 0)"/>
     <use xlink:href="#DejaVuSans-63" transform="translate(352.917969 0)"/>
     <use xlink:href="#DejaVuSans-65" transform="translate(407.898438 0)"/>
     <use xlink:href="#DejaVuSans-6d" transform="translate(469.421875 0)"/>
     <use xlink:href="#DejaVuSans-65" transform="translate(566.833984 0)"/>
     <use xlink:href="#DejaVuSans-6e" transform="translate(628.357422 0)"/>
     <use xlink:href="#DejaVuSans-74" transform="translate(691.736328 0)"/>
     <use xlink:href="#DejaVuSans-20" transform="translate(730.945312 0)"/>
     <use xlink:href="#DejaVuSans-4c" transform="translate(762.732422 0)"/>
     <use xlink:href="#DejaVuSans-65" transform="translate(816.695312 0)"/>
     <use xlink:href="#DejaVuSans-61" transform="translate(878.21875 0)"/>
     <use xlink:href="#DejaVuSans-72" transform="translate(939.498047 0)"/>
     <use xlink:href="#DejaVuSans-6e" transform="translate(978.861328 0)"/>
     <use xlink:href="#DejaVuSans-65" transform="translate(1042.240234 0)"/>
     <use xlink:href="#DejaVuSans-72" transform="translate(1103.763672 0)"/>
     <use xlink:href="#DejaVuSans-20" transform="translate(1144.876953 0)"/>
     <use xlink:href="#DejaVuSans-76" transform="translate(1176.664062 0)"/>
     <use xlink:href="#DejaVuSans-73" transform="translate(1235.84375 0)"/>
     <use xlink:href="#DejaVuSans-20" transform="translate(1287.943359 0)"/>
     <use xlink:href="#DejaVuSans-4f" transform="translate(1319.730469 0)"/>
     <use xlink:href="#DejaVuSans-70" transform="translate(1398.441406 0)"/>
     <use xlink:href="#DejaVuSans-74" transform="translate(1461.917969 0)"/>
     <use xlink:href="#DejaVuSans-69" transform="translate(1501.126953 0)"/>
     <use xlink:href="#DejaVuSans-6d" transform="translate(1528.910156 0)"/>
     <use xlink:href="#DejaVuSans-61" transform="translate(1626.322266 0)"/>
     <use xlink:href="#DejaVuSans-6c" transform="translate(1687.601562 0)"/>
     <use xlink:href="#DejaVuSans-20" transform="translate(1715.384766 0)"/>
     <use xlink:href="#DejaVuSans-4f" transform="translate(1747.171875 0)"/>
     <use xlink:href="#DejaVuSans-70" transform="translate(1825.882812 0)"/>
     <use xlink:href="#DejaVuSans-70" transform="translate(1889.359375 0)"/>
     <use xlink:href="#DejaVuSans-6f" transform="translate(1952.835938 0)"/>
     <use xlink:href="#DejaVuSans-6e" transform="translate(2014.017578 0)"/>
     <use xlink:href="#DejaVuSans-65" transform="translate(2077.396484 0)"/>
     <use xlink:href="#DejaVuSans-6e" transform="translate(2138.919922 0)"/>
     <use xlink:href="#DejaVuSans-74" transform="translate(2202.298828 0)"/>
    </g>
    <!-- (Average score every 1000 games) -->
    <g transform="translate(103.224375 43.192875) scale(0.12 -0.12)">
     <defs>
      <path id="DejaVuSans-28" d="M 1984 4856 
Q 1566 4138 1362 3434 
Q 1159 2731 1159 2009 
Q 1159 1288 1364 580 
Q 1569 -128 1984 -844 
L 1484 -844 
Q 1016 -109 783 600 
Q 550 1309 550 2009 
Q 550 2706 781 3412 
Q 1013 4119 1484 4856 
L 1984 4856 
z
" transform="scale(0.015625)"/>
      <path id="DejaVuSans-41" d="M 2188 4044 
L 1331 1722 
L 3047 1722 
L 2188 4044 
z
M 1831 4666 
L 2547 4666 
L 4325 0 
L 3669 0 
L 3244 1197 
L 1141 1197 
L 716 0 
L 50 0 
L 1831 4666 
z
" transform="scale(0.015625)"/>
      <path id="DejaVuSans-79" d="M 2059 -325 
Q 1816 -950 1584 -1140 
Q 1353 -1331 966 -1331 
L 506 -1331 
L 506 -850 
L 844 -850 
Q 1081 -850 1212 -737 
Q 1344 -625 1503 -206 
L 1606 56 
L 191 3500 
L 800 3500 
L 1894 763 
L 2988 3500 
L 3597 3500 
L 2059 -325 
z
" transform="scale(0.015625)"/>
      <path id="DejaVuSans-29" d="M 513 4856 
L 1013 4856 
Q 1481 4119 1714 3412 
Q 1947 2706 1947 2009 
Q 1947 1309 1714 600 
Q 1481 -109 1013 -844 
L 513 -844 
Q 928 -128 1133 580 
Q 1338 1288 1338 2009 
Q 1338 2731 1133 3434 
Q 928 4138 513 4856 
z
" transform="scale(0.015625)"/>
     </defs>
     <use xlink:href="#DejaVuSans-28"/>
     <use xlink:href="#DejaVuSans-41" transform="translate(39.013672 0)"/>
     <use xlink:href="#DejaVuSans-76" transform="translate(101.546875 0)"/>
     <use xlink:href="#DejaVuSans-65" transform="translate(160.726562 0)"/>
     <use xlink:href="#DejaVuSans-72" transform="translate(222.25 0)"/>
     <use xlink:href="#DejaVuSans-61" transform="translate(263.363281 0)"/>
     <use xlink:href="#DejaVuSans-67" transform="translate(324.642578 0)"/>
     <use xlink:href="#DejaVuSans-65" transform="translate(388.119141 0)"/>
     <use xlink:href="#DejaVuSans-20" transform="translate(449.642578 0)"/>
     <use xlink:href="#DejaVuSans-73" transform="translate(481.429688 0)"/>
     <use xlink:href="#DejaVuSans-63" transform="translate(533.529297 0)"/>
     <use xlink:href="#DejaVuSans-6f" transform="translate(588.509766 0)"/>
     <use xlink:href="#DejaVuSans-72" transform="translate(649.691406 0)"/>
     <use xlink:href="#DejaVuSans-65" transform="translate(688.554688 0)"/>
     <use xlink:href="#DejaVuSans-20" transform="translate(750.078125 0)"/>
     <use xlink:href="#DejaVuSans-65" transform="translate(781.865234 0)"/>
     <use xlink:href="#DejaVuSans-76" transform="translate(843.388672 0)"/>
     <use xlink:href="#DejaVuSans-65" transform="translate(902.568359 0)"/>
     <use xlink:href="#DejaVuSans-72" transform="translate(964.091797 0)"/>
     <use xlink:href="#DejaVuSans-79" transform="translate(1005.205078 0)"/>
     <use xlink:href="#DejaVuSans-20" transform="translate(1064.384766 0)"/>
     <use xlink:href="#DejaVuSans-31" transform="translate(1096.171875 0)"/>
     <use xlink:href="#DejaVuSans-30" transform="translate(1159.794922 0)"/>
     <use xlink:href="#DejaVuSans-30" transform="translate(1223.417969 0)"/>
     <use xlink:href="#DejaVuSans-30" transform="translate(1287.041016 0)"/>
     <use xlink:href="#DejaVuSans-20" transform="translate(1350.664062 0)"/>
     <use xlink:href="#DejaVuSans-67" transform="translate(1382.451172 0)"/>
     <use xlink:href="#DejaVuSans-61" transform="translate(1445.927734 0)"/>
     <use xlink:href="#DejaVuSans-6d" transform="translate(1507.207031 0)"/>
     <use xlink:href="#DejaVuSans-65" transform="translate(1604.619141 0)"/>
     <use xlink:href="#DejaVuSans-73" transform="translate(1666.142578 0)"/>
     <use xlink:href="#DejaVuSans-29" transform="translate(1718.242188 0)"/>
    </g>
   </g>
  </g>
 </g>
 <defs>
  <clipPath id="p2d9c5d8444">
   <rect x="30.103125" y="49.192875" width="357.12" height="266.112"/>
  </clipPath>
 </defs>
</svg>
